<svg width="32" height="32" viewBox="0 0 32 32" fill="none" xmlns="http://www.w3.org/2000/svg">
<g clip-path="url(#clip0_502_7)">
<path d="M15.9999 3.19986C15.1163 3.19986 14.3999 3.91621 14.3999 4.79986C14.3999 7.50746 11.1263 8.86342 9.21175 6.94887C8.58692 6.32403 7.57384 6.32403 6.94901 6.94887C6.32418 7.5737 6.32418 8.58677 6.94901 9.2116C8.86365 11.1262 7.50751 14.3998 4.79994 14.3998C3.91629 14.3998 3.19994 15.1161 3.19994 15.9998C3.19994 16.8835 3.91629 17.5998 4.79994 17.5998C7.50772 17.5998 8.86336 20.8735 6.94892 22.7879C6.32407 23.4129 6.32407 24.4258 6.94892 25.0508C7.57375 25.6756 8.5868 25.6756 9.21165 25.0508C11.1262 23.1363 14.3999 24.4921 14.3999 27.1998C14.3999 28.0834 15.1163 28.7997 15.9999 28.7997C16.8836 28.7997 17.5999 28.0834 17.5999 27.1998C17.5999 24.4921 20.8735 23.1361 22.7883 25.0506C23.4131 25.6756 24.4262 25.6756 25.051 25.0506C25.6758 24.4258 25.6758 23.4129 25.051 22.7879C23.1364 20.8735 24.4923 17.5998 27.1999 17.5998C28.0836 17.5998 28.7999 16.8835 28.7999 15.9998C28.7999 15.1161 28.0836 14.3998 27.1999 14.3998C24.4924 14.3998 23.1361 11.1263 25.0508 9.21163C25.6756 8.58678 25.6756 7.57373 25.0508 6.94889C24.426 6.32406 23.4129 6.32406 22.7881 6.94889C20.8735 8.8635 17.5999 7.50735 17.5999 4.79986C17.5999 3.91621 16.8836 3.19986 15.9999 3.19986ZM11.213 4.44311C11.3955 1.95875 13.4689 -0.00012207 15.9999 -0.00012207C18.531 -0.00012207 20.6044 1.95875 20.7868 4.44311C22.6726 2.8155 25.5239 2.8965 27.3135 4.68616C29.1033 6.47582 29.1843 9.32711 27.5566 11.2129C30.0411 11.3954 31.9999 13.4688 31.9999 15.9998C31.9999 18.5308 30.0411 20.6043 27.5567 20.7867C29.1844 22.6724 29.1033 25.5238 27.3137 27.3135C25.5239 29.1031 22.6727 29.1841 20.7868 27.5564C20.6044 30.0409 18.531 31.9997 15.9999 31.9997C13.4689 31.9997 11.3955 30.0409 11.213 27.5564C9.32722 29.1841 6.47586 29.1031 4.68616 27.3135C2.89648 25.5238 2.81549 22.6724 4.44317 20.7867C1.95882 20.6043 -6.10352e-05 18.5308 -6.10352e-05 15.9998C-6.10352e-05 13.4688 1.95887 11.3954 4.44328 11.2129C2.81559 9.32711 2.89659 6.4758 4.68628 4.68613C6.47594 2.89647 9.32722 2.81546 11.213 4.44311Z" fill="#FC3F37"/>
<path d="M15.9999 12.8C15.1513 12.8 14.3374 13.1371 13.7372 13.7372C13.137 14.3374 12.7999 15.1513 12.7999 15.9999C12.7999 16.8486 13.137 17.6625 13.7372 18.2627C14.3374 18.8628 15.1513 19.1999 15.9999 19.1999C16.8486 19.1999 17.6625 18.8628 18.2626 18.2627C18.8628 17.6625 19.1999 16.8486 19.1999 15.9999C19.1999 15.1513 18.8628 14.3374 18.2626 13.7372C17.6625 13.1371 16.8486 12.8 15.9999 12.8ZM11.4744 11.4745C12.6747 10.2743 14.3025 9.59998 15.9999 9.59998C17.6974 9.59998 19.3252 10.2743 20.5254 11.4745C21.7257 12.6747 22.3999 14.3025 22.3999 15.9999C22.3999 17.6974 21.7257 19.3252 20.5254 20.5254C19.3252 21.7257 17.6974 22.3999 15.9999 22.3999C14.3025 22.3999 12.6747 21.7257 11.4744 20.5254C10.2742 19.3252 9.59991 17.6974 9.59991 15.9999C9.59991 14.3025 10.2742 12.6747 11.4744 11.4745Z" fill="#FC3F37"/>
</g>
<defs>
<clipPath id="clip0_502_7">
<rect width="32" height="32" fill="white"/>
</clipPath>
</defs>
</svg>
