<svg width="32" height="32" viewBox="0 0 32 32" fill="none" xmlns="http://www.w3.org/2000/svg">
<g clip-path="url(#clip0_502_4)">
<path d="M16 0.000244141C17.1046 0.000244141 18 0.895684 18 2.00024V30.0002C18 31.1048 17.1046 32.0002 16 32.0002C14.8954 32.0002 14 31.1048 14 30.0002V2.00024C14 0.895684 14.8954 0.000244141 16 0.000244141ZM25.9999 8.00024C27.1045 8.00024 27.9999 8.89568 27.9999 10.0002V30.0002C27.9999 31.1048 27.1045 32.0002 25.9999 32.0002C24.8953 32.0002 23.9999 31.1048 23.9999 30.0002V10.0002C23.9999 8.89568 24.8953 8.00024 25.9999 8.00024ZM6.00008 16.0002C7.10463 16.0002 8.00006 16.8956 8.00006 18.0002V30.0002C8.00006 31.1048 7.10463 32.0002 6.00008 32.0002C4.89552 32.0002 4.00009 31.1048 4.00009 30.0002V18.0002C4.00009 16.8956 4.89552 16.0002 6.00008 16.0002Z" fill="#FC3F37"/>
</g>
<defs>
<clipPath id="clip0_502_4">
<rect width="32" height="32" fill="white"/>
</clipPath>
</defs>
</svg>
