<svg width="32" height="32" viewBox="0 0 32 32" fill="none" xmlns="http://www.w3.org/2000/svg">
<path d="M13.3334 5.33329C8.91507 5.33329 5.33335 8.91501 5.33335 13.3333C5.33335 17.7516 8.91507 21.3333 13.3334 21.3333C17.7516 21.3333 21.3334 17.7516 21.3334 13.3333C21.3334 8.91501 17.7516 5.33329 13.3334 5.33329ZM2.66669 13.3333C2.66669 7.44225 7.44231 2.66663 13.3334 2.66663C19.2244 2.66663 24 7.44225 24 13.3333C24 15.7982 23.1639 18.068 21.7599 19.8741L28.9428 27.0572C29.4635 27.5778 29.4635 28.4221 28.9428 28.9428C28.4222 29.4634 27.5779 29.4634 27.0572 28.9428L19.8742 21.7598C18.068 23.1638 15.7983 24 13.3334 24C7.44231 24 2.66669 19.2244 2.66669 13.3333Z" fill="#FC3F37"/>
</svg>
