<svg width="32" height="30" viewBox="0 0 32 30" fill="none" xmlns="http://www.w3.org/2000/svg">
<path d="M2.33394 7.43054H7.92313V18.4689H2.33394C1.98015 18.4689 1.64086 18.3284 1.3907 18.0782C1.14054 17.8281 1 17.4888 1 17.135V8.76448C1 8.4107 1.14054 8.07141 1.3907 7.82125C1.64086 7.57108 1.98015 7.43054 2.33394 7.43054Z" stroke="#FC3F37" stroke-width="2.00091"/>
<path d="M7.92285 18.4685V7.43016C7.92285 7.43016 10.8375 7.49686 15.6864 7.43016C20.5352 7.36347 26.2111 4.2954 29.8995 1.16063C29.9959 1.07812 30.1139 1.02484 30.2396 1.00706C30.3653 0.989284 30.4935 1.00774 30.609 1.06027C30.7246 1.1128 30.8228 1.19722 30.892 1.3036C30.9613 1.40999 30.9987 1.53393 31 1.66086V24.2645C30.9997 24.389 30.9646 24.5108 30.8986 24.6164C30.8327 24.7219 30.7385 24.8069 30.6268 24.8617C30.5151 24.9165 30.3903 24.939 30.2664 24.9266C30.1426 24.9141 30.0247 24.8673 29.9261 24.7914C27.5517 22.9239 21.6424 18.7487 15.9198 18.5753C12.5716 18.4685 9.86373 18.4685 7.92285 18.4685Z" stroke="#FC3F37" stroke-width="2.00091"/>
<path d="M10.1908 29H6.98937C6.63559 29 6.2963 28.8595 6.04613 28.6093C5.79597 28.3592 5.65543 28.0199 5.65543 27.6661L4.98846 18.4752H10.8578L11.5248 27.6661C11.5248 28.0199 11.3842 28.3592 11.1341 28.6093C10.8839 28.8595 10.5446 29 10.1908 29Z" stroke="#FC3F37" stroke-width="2.00091"/>
</svg>
