<svg width="22" height="32" viewBox="0 0 22 32" fill="none" xmlns="http://www.w3.org/2000/svg">
<path d="M0 3.55556C0 1.59188 1.59188 0 3.55556 0H17.7778C19.7415 0 21.3333 1.59188 21.3333 3.55556V28.4444C21.3333 30.4082 19.7415 32 17.7778 32H3.55556C1.59188 32 0 30.4082 0 28.4444V3.55556ZM17.7778 3.55556H3.55556V28.4444H17.7778V3.55556Z" fill="#FC3F37"/>
<path d="M12.4443 24.8891C12.4443 25.871 11.6484 26.6669 10.6666 26.6669C9.68471 26.6669 8.88879 25.871 8.88879 24.8891C8.88879 23.9072 9.68471 23.1113 10.6666 23.1113C11.6484 23.1113 12.4443 23.9072 12.4443 24.8891Z" fill="#FC3F37"/>
</svg>
